<?xml version="1.0" encoding="UTF-8"?>
<svg version="1.1" xmlns="http://www.w3.org/2000/svg" width="193" height="187">
<path d="M0 0 C16.52455327 14.00036713 27.2791741 33.95770203 29.8125 55.46875 C31.29007079 81.07237046 25.48331552 103.13658398 8.375 122.71875 C6.87193062 124.31895652 5.35157333 125.90314093 3.8125 127.46875 C3.12671875 128.16742188 2.4409375 128.86609375 1.734375 129.5859375 C-4.49113625 135.51170191 -11.6485274 139.46924523 -19.1875 143.46875 C-19.92355469 143.87351563 -20.65960938 144.27828125 -21.41796875 144.6953125 C-23.1875 145.46875 -23.1875 145.46875 -26.1875 145.46875 C-27.91491591 140.00750381 -29.63939456 134.54534269 -31.36181641 129.08251953 C-32.13793327 126.62565757 -32.91806855 124.17010909 -33.69921875 121.71484375 C-34.15374049 120.27867579 -34.60817233 118.84247937 -35.0625 117.40625 C-35.38480591 116.39884766 -35.38480591 116.39884766 -35.71362305 115.37109375 C-37.1875 110.69559809 -37.1875 110.69559809 -37.1875 108.46875 C-33.5575 108.46875 -29.9275 108.46875 -26.1875 108.46875 C-23.8775 115.72875 -21.5675 122.98875 -19.1875 130.46875 C-1.37994269 118.51224723 11.24504165 104.27836662 16.625 83.03125 C20.69734659 61.66313256 17.16702544 41.1081487 5.12109375 22.9140625 C3.44219335 20.66254409 1.68741374 18.55939649 -0.1875 16.46875 C-1.20457031 15.32986328 -1.20457031 15.32986328 -2.2421875 14.16796875 C-16.16100882 -0.5681499 -35.52536477 -8.16072435 -55.625 -8.78125 C-76.74789346 -8.54361745 -95.35435214 -0.50433988 -110.80078125 13.84765625 C-115.3823677 18.87915299 -118.77654607 24.60639181 -122.1875 30.46875 C-122.61933594 31.16613281 -123.05117187 31.86351562 -123.49609375 32.58203125 C-132.51803359 48.41430701 -132.53970124 69.22214832 -128.21875 86.296875 C-122.94530118 103.61374073 -112.73264867 116.9153887 -98.1875 127.46875 C-97.97480469 126.21191406 -97.76210937 124.95507812 -97.54296875 123.66015625 C-95.82399815 115.08036871 -93.06102826 106.76324815 -90.5 98.40625 C-87.14862844 87.43938508 -83.87640431 76.46016482 -80.80859375 65.41015625 C-77.33221315 52.89878868 -73.70951575 40.43435252 -69.98828125 27.99365234 C-69.27541058 25.60228924 -68.56790185 23.20932243 -67.86523438 20.81494141 C-66.83336975 17.30009356 -65.78578313 13.79029375 -64.734375 10.28125 C-64.42183777 9.20552734 -64.10930054 8.12980469 -63.78729248 7.02148438 C-63.48978088 6.04115234 -63.19226929 5.06082031 -62.88574219 4.05078125 C-62.62927917 3.18686768 -62.37281616 2.3229541 -62.10858154 1.43286133 C-61.65264618 0.46062622 -61.65264618 0.46062622 -61.1875 -0.53125 C-60.1975 -0.86125 -59.2075 -1.19125 -58.1875 -1.53125 C-56.2075 5.39875 -54.2275 12.32875 -52.1875 19.46875 C-50.2075 12.53875 -48.2275 5.60875 -46.1875 -1.53125 C-45.5275 -1.53125 -44.8675 -1.53125 -44.1875 -1.53125 C-43.50731585 0.31800066 -42.84399587 2.17345786 -42.1875 4.03125 C-41.81625 5.06378906 -41.445 6.09632812 -41.0625 7.16015625 C-39.23889623 14.05565802 -40.51908792 19.66312041 -42.5625 26.28125 C-42.78421875 27.04373047 -43.0059375 27.80621094 -43.234375 28.59179688 C-44.92097622 34.20222622 -44.92097622 34.20222622 -47.1875 36.46875 C-46.97452271 37.19093719 -46.76154541 37.91312439 -46.54211426 38.65719604 C-44.53802582 45.45464326 -42.53651838 52.25284376 -40.53792572 59.05190849 C-39.51027522 62.54756145 -38.48161988 66.0429122 -37.45068359 69.53759766 C-36.456297 72.90852147 -35.46452978 76.28020563 -34.47459412 79.65243912 C-33.91136278 81.56854388 -33.34540316 83.48384599 -32.77941895 85.3991394 C-32.43906616 86.56019196 -32.09871338 87.72124451 -31.74804688 88.91748047 C-31.4460437 89.94340302 -31.14404053 90.96932556 -30.83288574 92.02633667 C-30.1875 94.46875 -30.1875 94.46875 -30.1875 96.46875 C-33.4875 96.46875 -36.7875 96.46875 -40.1875 96.46875 C-42.31995196 91.70761513 -44.00978183 87.03150478 -45.44921875 82.00390625 C-45.64473831 81.32573349 -45.84025787 80.64756073 -46.04170227 79.94883728 C-46.6570534 77.81083494 -47.26612934 75.67110579 -47.875 73.53125 C-48.29450582 72.06954199 -48.71442399 70.60795225 -49.13476562 69.14648438 C-50.1571086 65.58859275 -51.17383711 62.02912568 -52.1875 58.46875 C-52.44442627 59.33040771 -52.70135254 60.19206543 -52.96606445 61.07983398 C-53.93220539 64.31748251 -54.89964164 67.55473837 -55.86791992 70.79174805 C-56.28444451 72.18515069 -56.70047221 73.57870198 -57.1159668 74.97241211 C-57.71788773 76.99112889 -58.32167378 79.00928036 -58.92578125 81.02734375 C-59.28712158 82.23704834 -59.64846191 83.44675293 -60.02075195 84.69311523 C-61.34324718 88.97275295 -62.77101518 93.21929553 -64.1875 97.46875 C-46.6975 97.46875 -29.2075 97.46875 -11.1875 97.46875 C-11.1875 100.76875 -11.1875 104.06875 -11.1875 107.46875 C-29.6675 107.79875 -48.1475 108.12875 -67.1875 108.46875 C-70.6525 120.34875 -70.6525 120.34875 -74.1875 132.46875 C-75.1875 133.46875 -75.1875 133.46875 -77.47265625 133.56640625 C-80.04427083 133.53385417 -82.61588542 133.50130208 -85.1875 133.46875 C-83.77057393 125.22676379 -81.46154973 117.32883081 -79.01171875 109.34375 C-78.60009744 107.98883183 -78.18895947 106.63376674 -77.77827454 105.27856445 C-76.70083696 101.72677757 -75.61816242 98.17661156 -74.53393555 94.62689209 C-72.60376303 88.30520166 -70.68161951 81.98106647 -68.76171875 75.65625 C-68.55728024 74.98321838 -68.35284172 74.31018677 -68.1422081 73.61676025 C-65.00358478 63.27554517 -61.96204541 52.91409744 -59.1875 42.46875 C-58.81757935 41.37820312 -58.81757935 41.37820312 -58.44018555 40.265625 C-58.0977202 37.83031585 -59.04544514 36.59108391 -60.1875 34.46875 C-62.1990436 41.13070647 -64.20658111 47.79386167 -66.21166992 54.45776367 C-66.89049167 56.7122563 -67.57014441 58.96649893 -68.25073242 61.22045898 C-72.24552084 74.45264121 -76.13148734 87.70618757 -79.83039856 101.02429199 C-81.77330227 108.01594013 -83.78470231 114.97593824 -85.9375 121.90625 C-86.49497387 123.71739184 -87.05226713 125.52858929 -87.609375 127.33984375 C-87.86912109 128.18144043 -88.12886719 129.02303711 -88.39648438 129.89013672 C-89.68078993 134.07681428 -90.93519695 138.2724066 -92.1875 142.46875 C-102.47645517 140.58270824 -109.83081082 133.5012461 -117.1875 126.46875 C-117.80367187 125.92734375 -118.41984375 125.3859375 -119.0546875 124.828125 C-128.64255937 116.07974422 -134.86004065 103.49409376 -139.1875 91.46875 C-139.5278125 90.52644531 -139.868125 89.58414063 -140.21875 88.61328125 C-144.87229872 72.64902383 -143.99505154 52.94920705 -138.1875 37.46875 C-137.82527344 36.43105469 -137.46304688 35.39335938 -137.08984375 34.32421875 C-128.99313992 12.94343135 -111.89653774 -3.42325792 -91.61328125 -13.265625 C-60.75616683 -26.93080054 -25.89666888 -20.96091764 0 0 Z M-52.1875 21.46875 C-51.1875 23.46875 -51.1875 23.46875 -51.1875 23.46875 Z M-51.1875 25.46875 C-50.1875 27.46875 -50.1875 27.46875 -50.1875 27.46875 Z M-50.1875 28.46875 C-49.1875 30.46875 -49.1875 30.46875 -49.1875 30.46875 Z M-49.1875 31.46875 C-48.1875 33.46875 -48.1875 33.46875 -48.1875 33.46875 Z M-56.1875 44.46875 C-55.1875 46.46875 -55.1875 46.46875 -55.1875 46.46875 Z M-55.1875 47.46875 C-54.1875 49.46875 -54.1875 49.46875 -54.1875 49.46875 Z M-54.1875 51.46875 C-53.1875 53.46875 -53.1875 53.46875 -53.1875 53.46875 Z " fill="#D8BA6A" transform="translate(153.1875,33.53125)"/>
<path d="M0 0 C2.64 0.33 5.28 0.66 8 1 C8 1.66 8 2.32 8 3 C0.74 3 -6.52 3 -14 3 C-14 2.67 -14 2.34 -14 2 C-9.38 2 -4.76 2 0 2 C0 1.34 0 0.68 0 0 Z " fill="#DEC271" transform="translate(100,13)"/>
</svg>
